<svg width="107" height="101" viewBox="0 0 107 101" fill="none" xmlns="http://www.w3.org/2000/svg">
<path d="M56.2408 26.1071C68.5526 18.3121 85.1673 22.3013 93.3174 35.1735C101.467 48.0456 97.9677 64.7703 85.6562 72.5657C73.3444 80.3609 56.729 76.372 48.5788 63.4999C40.4287 50.6276 43.929 33.9024 56.2408 26.1071Z" stroke="white" stroke-width="3"/>
<path d="M87.64 73.4295C87.1952 72.727 86.2651 72.5181 85.5626 72.9629C84.8601 73.4076 84.6512 74.3377 85.096 75.0402L87.64 73.4295ZM102.031 100.963C102.842 101.145 103.648 100.635 103.83 99.824L106.799 86.6039C106.982 85.7927 106.472 84.9873 105.66 84.8051C104.849 84.6229 104.044 85.1328 103.862 85.944L101.222 97.6952L89.4709 95.0556C88.6596 94.8734 87.8542 95.3833 87.672 96.1945C87.4898 97.0058 87.9997 97.8112 88.811 97.9934L102.031 100.963ZM85.096 75.0402L101.089 100.299L103.633 98.6887L87.64 73.4295L85.096 75.0402Z" fill="white"/>
<circle cx="39.2004" cy="54.4597" r="27.4992" transform="rotate(-32.3401 39.2004 54.4597)" stroke="white" stroke-width="3"/>
<path d="M4.31066 1.5055L22.9495 30.9436" stroke="white" stroke-width="3" stroke-linecap="round"/>
<path d="M23.9997 7.75683L1.50569 21.5368" stroke="white" stroke-width="3" stroke-linecap="round"/>
</svg>
