<svg width="103" height="127" viewBox="0 0 103 127" fill="none" xmlns="http://www.w3.org/2000/svg">
<path d="M50.9313 113.367L17.694 113.367C8.74673 113.361 1.50275 106.714 1.50835 98.5189L1.56442 16.3334C1.57002 8.13868 8.82305 1.50145 17.7703 1.50756L68.0106 1.54184C76.9579 1.54795 84.2018 8.19507 84.1962 16.3897L84.1962 74.525" stroke="white" stroke-width="3" stroke-linecap="round" stroke-linejoin="round"/>
<path d="M78.2461 125.492C90.9753 125.501 101.301 115.283 101.31 102.67C101.319 90.0568 91.0065 79.8248 78.2773 79.8161C65.548 79.8074 55.222 90.0253 55.2134 102.639C55.2048 115.252 65.5169 125.484 78.2461 125.492Z" stroke="white" stroke-width="3" stroke-linecap="round" stroke-linejoin="round"/>
<path d="M16.1107 28.2741L69.8862 28.3108" stroke="white" stroke-width="3" stroke-linecap="round" stroke-linejoin="round"/>
<path d="M15.7612 45.8872L69.5367 45.9239" stroke="white" stroke-width="3" stroke-linecap="round" stroke-linejoin="round"/>
<path d="M15.7494 62.9756L69.5249 63.0123" stroke="white" stroke-width="3" stroke-linecap="round" stroke-linejoin="round"/>
<path d="M15.7376 80.0639L47.8365 80.0858" stroke="white" stroke-width="3" stroke-linecap="round" stroke-linejoin="round"/>
<path d="M65.1995 101.758L73.9056 110.397C74.3128 110.801 74.967 110.801 75.3748 110.398L91.3231 94.6164" stroke="white" stroke-width="3" stroke-linecap="round" stroke-linejoin="round"/>
</svg>
