<svg width="32" height="15" viewBox="0 0 32 15" fill="none" xmlns="http://www.w3.org/2000/svg">
<path d="M1.0067 6.40639C0.450714 6.40639 -2.43043e-08 6.8571 0 7.41309C2.43014e-08 7.96907 0.450714 8.41978 1.0067 8.41978L1.0067 6.40639ZM31.7055 8.12493C32.0986 7.73179 32.0986 7.09438 31.7055 6.70124L25.2989 0.294661C24.9057 -0.0984789 24.2683 -0.0984788 23.8752 0.294661C23.482 0.687801 23.482 1.32521 23.8752 1.71835L29.5699 7.41309L23.8752 13.1078C23.482 13.501 23.482 14.1384 23.8752 14.5315C24.2683 14.9247 24.9057 14.9247 25.2989 14.5315L31.7055 8.12493ZM1.0067 8.41978L30.9936 8.41978L30.9936 6.40639L1.0067 6.40639L1.0067 8.41978Z" fill="white"/>
</svg>
